G04*
G04 #@! TF.GenerationSoftware,Altium Limited,Altium Designer,18.1.7 (191)*
G04*
G04 Layer_Color=32896*
%FSLAX25Y25*%
%MOIN*%
G70*
G01*
G75*
%ADD10C,0.00394*%
%ADD12C,0.00709*%
%ADD14C,0.00787*%
%ADD77C,0.00984*%
%ADD78C,0.02362*%
D10*
X39500Y-114745D02*
Y-117500D01*
X38122D01*
X37663Y-117041D01*
Y-116582D01*
X38122Y-116122D01*
X39500D01*
X38122D01*
X37663Y-115663D01*
Y-115204D01*
X38122Y-114745D01*
X39500D01*
X36745D02*
X34908D01*
X35827D01*
Y-117500D01*
X33990D02*
X33072D01*
X33531D01*
Y-114745D01*
X33990Y-115204D01*
X-4337Y-104204D02*
X-3878Y-103745D01*
X-2959D01*
X-2500Y-104204D01*
Y-106041D01*
X-2959Y-106500D01*
X-3878D01*
X-4337Y-106041D01*
X-7092Y-103745D02*
X-6173Y-104204D01*
X-5255Y-105122D01*
Y-106041D01*
X-5714Y-106500D01*
X-6633D01*
X-7092Y-106041D01*
Y-105582D01*
X-6633Y-105122D01*
X-5255D01*
X-39663Y-69899D02*
X-40123Y-70359D01*
X-41041D01*
X-41500Y-69899D01*
Y-68063D01*
X-41041Y-67603D01*
X-40123D01*
X-39663Y-68063D01*
X-38745Y-70359D02*
X-36908D01*
Y-69899D01*
X-38745Y-68063D01*
Y-67603D01*
X-53337Y-89204D02*
X-52877Y-88745D01*
X-51959D01*
X-51500Y-89204D01*
Y-91041D01*
X-51959Y-91500D01*
X-52877D01*
X-53337Y-91041D01*
X-56092Y-91500D02*
X-54255D01*
X-56092Y-89663D01*
Y-89204D01*
X-55633Y-88745D01*
X-54714D01*
X-54255Y-89204D01*
X23163Y-41204D02*
X23622Y-40745D01*
X24541D01*
X25000Y-41204D01*
Y-43041D01*
X24541Y-43500D01*
X23622D01*
X23163Y-43041D01*
X20408Y-40745D02*
X22245D01*
Y-42123D01*
X21327Y-41663D01*
X20867D01*
X20408Y-42123D01*
Y-43041D01*
X20867Y-43500D01*
X21786D01*
X22245Y-43041D01*
X30963Y-78404D02*
X31422Y-77945D01*
X32341D01*
X32800Y-78404D01*
Y-80241D01*
X32341Y-80700D01*
X31422D01*
X30963Y-80241D01*
X28668Y-80700D02*
Y-77945D01*
X30045Y-79322D01*
X28208D01*
X-43500Y-67932D02*
Y-68392D01*
X-44418Y-69310D01*
X-45337Y-68392D01*
Y-67932D01*
X-44418Y-69310D02*
Y-70688D01*
X-46255D02*
X-47173D01*
X-46714D01*
Y-67932D01*
X-46255Y-68392D01*
X-53837Y-73556D02*
X-53377Y-73097D01*
X-52459D01*
X-52000Y-73556D01*
Y-75393D01*
X-52459Y-75852D01*
X-53377D01*
X-53837Y-75393D01*
X-54755Y-73556D02*
X-55214Y-73097D01*
X-56133D01*
X-56592Y-73556D01*
Y-74015D01*
X-56133Y-74475D01*
X-55673D01*
X-56133D01*
X-56592Y-74934D01*
Y-75393D01*
X-56133Y-75852D01*
X-55214D01*
X-54755Y-75393D01*
X-21500Y-96745D02*
Y-99041D01*
X-21959Y-99500D01*
X-22877D01*
X-23337Y-99041D01*
Y-96745D01*
X-24255Y-99500D02*
X-25173D01*
X-24714D01*
Y-96745D01*
X-24255Y-97204D01*
X-2837Y-41204D02*
X-2378Y-40745D01*
X-1459D01*
X-1000Y-41204D01*
Y-43041D01*
X-1459Y-43500D01*
X-2378D01*
X-2837Y-43041D01*
X-3755Y-41204D02*
X-4214Y-40745D01*
X-5133D01*
X-5592Y-41204D01*
Y-41663D01*
X-5133Y-42123D01*
X-5592Y-42582D01*
Y-43041D01*
X-5133Y-43500D01*
X-4214D01*
X-3755Y-43041D01*
Y-42582D01*
X-4214Y-42123D01*
X-3755Y-41663D01*
Y-41204D01*
X-4214Y-42123D02*
X-5133D01*
D12*
X-54393Y-76886D02*
X-53763D01*
X-54393Y-80114D02*
X-53763D01*
X-54315Y-92886D02*
X-53685D01*
X-54315Y-96114D02*
X-53685D01*
X-15815Y-103386D02*
X-15185D01*
X-15815Y-106614D02*
X-15185D01*
X-40614Y-60815D02*
Y-60185D01*
X-37386Y-60815D02*
Y-60185D01*
X11685Y-44698D02*
X12315D01*
X11685Y-41470D02*
X12315D01*
X28386Y-89815D02*
Y-89185D01*
X31614Y-89815D02*
Y-89185D01*
X-14315Y-44480D02*
X-13685D01*
X-14315Y-41251D02*
X-13685D01*
D14*
X41795Y-169285D02*
Y-162402D01*
X39750Y-169285D02*
X41795D01*
X35135Y-181705D02*
X39750Y-169285D01*
X34215Y-183280D02*
X35135Y-181705D01*
X33240Y-184300D02*
X34215Y-183280D01*
X31940Y-185165D02*
X33240Y-184300D01*
X30325Y-185750D02*
X31940Y-185165D01*
X28780Y-185900D02*
X30325Y-185750D01*
X27205Y-185665D02*
X28780Y-185900D01*
X25835Y-185115D02*
X27205Y-185665D01*
X23614Y-183661D02*
X25835Y-185115D01*
X21440Y-182270D02*
X23614Y-183661D01*
X18760Y-180810D02*
X21440Y-182270D01*
X16005Y-179560D02*
X18760Y-180810D01*
X13185Y-178515D02*
X16005Y-179560D01*
X10315Y-177685D02*
X13185Y-178515D01*
X8135Y-177195D02*
X10315Y-177685D01*
X5200Y-176725D02*
X8135Y-177195D01*
X2245Y-176465D02*
X5200Y-176725D01*
X20Y-176405D02*
X2245Y-176465D01*
X-2205D02*
X20Y-176405D01*
X-5160Y-176725D02*
X-2205Y-176465D01*
X-8095Y-177190D02*
X-5160Y-176725D01*
X-10995Y-177870D02*
X-8095Y-177190D01*
X-13855Y-178755D02*
X-10995Y-177870D01*
X-16660Y-179850D02*
X-13855Y-178755D01*
X-18720Y-180805D02*
X-16660Y-179850D01*
X-20735Y-181880D02*
X-18720Y-180805D01*
X-22705Y-183075D02*
X-20735Y-181880D01*
X-24915Y-184575D02*
X-22705Y-183075D01*
X-26550Y-185467D02*
X-24915Y-184575D01*
X-28375Y-185880D02*
X-26550Y-185467D01*
X-30450Y-185705D02*
X-28375Y-185880D01*
X-32370Y-184905D02*
X-30450Y-185705D01*
X-33970Y-183550D02*
X-32370Y-184905D01*
X-35165Y-181535D02*
X-33970Y-183550D01*
X-39750Y-169285D02*
X-35165Y-181535D01*
X-41750Y-169285D02*
X-39750D01*
X-41750D02*
Y-162402D01*
X41795Y-140748D02*
Y-133700D01*
X39750D02*
X41795D01*
X39750D02*
X41210Y-132325D01*
X30460Y-120995D02*
X41210Y-132325D01*
X29000Y-122365D02*
X30460Y-120995D01*
X-29000Y-122365D02*
X29000D01*
X-30415Y-120995D02*
X-29000Y-122365D01*
X-41165Y-132325D02*
X-30415Y-120995D01*
X-41165Y-132325D02*
X-39750Y-133700D01*
X-41750D02*
X-39750D01*
X-41750Y-140748D02*
Y-133700D01*
X-33390Y-96342D02*
X-32504D01*
X-33390Y-76657D02*
X-32504D01*
X-45496Y-96342D02*
X-44610D01*
X-45496Y-76657D02*
X-44610D01*
X-32504Y-96342D02*
Y-76657D01*
X-45496Y-96342D02*
Y-76657D01*
X-16732Y-91732D02*
Y-58268D01*
X16732Y-91732D02*
Y-58268D01*
X-16732Y-91732D02*
X16732D01*
X-16732Y-58268D02*
X16732D01*
D77*
X-44709Y-74098D02*
G03*
X-44709Y-74098I-492J0D01*
G01*
X-21358Y-92520D02*
G03*
X-21358Y-92520I-492J0D01*
G01*
D78*
X-11614Y-87795D02*
G03*
X-11614Y-87795I-1181J0D01*
G01*
M02*
