G04*
G04 #@! TF.GenerationSoftware,Altium Limited,Altium Designer,18.1.7 (191)*
G04*
G04 Layer_Color=255*
%FSLAX25Y25*%
%MOIN*%
G70*
G01*
G75*
%ADD15R,0.03937X0.03937*%
%ADD19R,0.05000X0.20000*%
%ADD20R,0.15590X0.15590*%
%ADD68R,0.03937X0.03937*%
%ADD69R,0.08071X0.08268*%
%ADD70O,0.07087X0.01181*%
%ADD71O,0.01181X0.07087*%
D15*
X-50928Y-78500D02*
D03*
X-57227D02*
D03*
X-50850Y-94500D02*
D03*
X-57150D02*
D03*
X-12350Y-105000D02*
D03*
X-18650D02*
D03*
X8850Y-43084D02*
D03*
X15150D02*
D03*
X-17150Y-42865D02*
D03*
X-10850D02*
D03*
D19*
X-43248Y-151575D02*
D03*
X43248D02*
D03*
D20*
X0D02*
D03*
D68*
X-39000Y-57350D02*
D03*
Y-63650D02*
D03*
X30000Y-86350D02*
D03*
Y-92650D02*
D03*
D69*
X-39000Y-94472D02*
D03*
Y-78528D02*
D03*
D70*
X-21850Y-89764D02*
D03*
Y-87795D02*
D03*
Y-85827D02*
D03*
Y-83858D02*
D03*
Y-81890D02*
D03*
Y-79921D02*
D03*
Y-77953D02*
D03*
Y-75984D02*
D03*
Y-74016D02*
D03*
Y-72047D02*
D03*
Y-70079D02*
D03*
Y-68110D02*
D03*
Y-66142D02*
D03*
Y-64173D02*
D03*
Y-62205D02*
D03*
Y-60236D02*
D03*
X21850D02*
D03*
Y-62205D02*
D03*
Y-64173D02*
D03*
Y-66142D02*
D03*
Y-68110D02*
D03*
Y-70079D02*
D03*
Y-72047D02*
D03*
Y-74016D02*
D03*
Y-75984D02*
D03*
Y-77953D02*
D03*
Y-79921D02*
D03*
Y-81890D02*
D03*
Y-83858D02*
D03*
Y-85827D02*
D03*
Y-87795D02*
D03*
Y-89764D02*
D03*
D71*
X-14764Y-53150D02*
D03*
X-12795D02*
D03*
X-10827D02*
D03*
X-8858D02*
D03*
X-6890D02*
D03*
X-4921D02*
D03*
X-2953D02*
D03*
X-984D02*
D03*
X984D02*
D03*
X2953D02*
D03*
X4921D02*
D03*
X6890D02*
D03*
X8858D02*
D03*
X10827D02*
D03*
X12795D02*
D03*
X14764D02*
D03*
Y-96850D02*
D03*
X12795D02*
D03*
X10827D02*
D03*
X8858D02*
D03*
X6890D02*
D03*
X4921D02*
D03*
X2953D02*
D03*
X984D02*
D03*
X-984D02*
D03*
X-2953D02*
D03*
X-4921D02*
D03*
X-6890D02*
D03*
X-8858D02*
D03*
X-10827D02*
D03*
X-12795D02*
D03*
X-14764D02*
D03*
M02*
