G04*
G04 #@! TF.GenerationSoftware,Altium Limited,Altium Designer,18.1.7 (191)*
G04*
G04 Layer_Physical_Order=2*
G04 Layer_Color=16711680*
%FSLAX25Y25*%
%MOIN*%
G70*
G01*
G75*
%ADD11C,0.01000*%
%ADD15R,0.03937X0.03937*%
%ADD19R,0.05000X0.20000*%
%ADD20R,0.15590X0.15590*%
%ADD62C,0.01968*%
%ADD63C,0.01181*%
%ADD64C,0.03937*%
%ADD66C,0.02756*%
%ADD67C,0.02559*%
%ADD68R,0.03937X0.03937*%
%ADD69R,0.08071X0.08268*%
%ADD70O,0.07087X0.01181*%
%ADD71O,0.01181X0.07087*%
%ADD72R,0.16159X0.17000*%
G36*
X7124Y126853D02*
X14225Y126254D01*
X21282Y125258D01*
X28272Y123867D01*
X35173Y122087D01*
X41963Y119923D01*
X48621Y117381D01*
X55126Y114471D01*
X61458Y111199D01*
X67596Y107579D01*
X73522Y103619D01*
X79216Y99334D01*
X84661Y94736D01*
X89840Y89840D01*
X94736Y84661D01*
X99334Y79216D01*
X103619Y73522D01*
X107579Y67596D01*
X111199Y61458D01*
X114471Y55126D01*
X117381Y48621D01*
X119923Y41963D01*
X122087Y35173D01*
X123867Y28272D01*
X125258Y21282D01*
X126254Y14225D01*
X126853Y7124D01*
X127053Y0D01*
X126853Y-7124D01*
X126254Y-14225D01*
X125258Y-21282D01*
X123867Y-28272D01*
X122087Y-35173D01*
X119923Y-41963D01*
X117381Y-48621D01*
X114471Y-55126D01*
X111199Y-61458D01*
X107579Y-67596D01*
X103619Y-73522D01*
X99334Y-79216D01*
X94736Y-84661D01*
X89840Y-89840D01*
X84661Y-94736D01*
X79216Y-99334D01*
X77188Y-100860D01*
X77188Y-100860D01*
X77083Y-100967D01*
X76885Y-101265D01*
X76815Y-101616D01*
X76807Y-101766D01*
X76807D01*
X77047Y-103095D01*
X77641Y-108620D01*
X77840Y-114173D01*
X77641Y-119726D01*
X77047Y-125251D01*
X76061Y-130719D01*
X74687Y-136103D01*
X72932Y-141375D01*
X70806Y-146509D01*
X68318Y-151478D01*
X65483Y-156257D01*
X62314Y-160821D01*
X58827Y-165147D01*
X55041Y-169214D01*
X50974Y-173001D01*
X46648Y-176487D01*
X42083Y-179656D01*
X37305Y-182492D01*
X33152Y-184570D01*
X31693Y-185013D01*
X30000Y-185179D01*
X28307Y-185013D01*
X27520Y-184774D01*
D01*
X27083Y-184579D01*
X24095Y-182676D01*
X20366Y-180735D01*
X16482Y-179126D01*
X12472Y-177861D01*
X8368Y-176952D01*
X4200Y-176403D01*
X0Y-176219D01*
X-4200Y-176403D01*
X-8368Y-176952D01*
X-12472Y-177861D01*
X-16482Y-179126D01*
X-20366Y-180735D01*
X-24095Y-182676D01*
X-26772Y-184381D01*
X-26869Y-184433D01*
X-28497Y-184927D01*
X-30191Y-185094D01*
X-31884Y-184927D01*
X-33309Y-184494D01*
X-33311Y-184491D01*
X-33311Y-184491D01*
X-33311Y-184491D01*
X-37305Y-182492D01*
X-42083Y-179656D01*
X-46648Y-176487D01*
X-50974Y-173001D01*
X-55041Y-169214D01*
X-58827Y-165147D01*
X-62314Y-160821D01*
X-65483Y-156257D01*
X-68318Y-151478D01*
X-70806Y-146509D01*
X-72932Y-141375D01*
X-74687Y-136103D01*
X-76061Y-130719D01*
X-77047Y-125251D01*
X-77641Y-119726D01*
X-77840Y-114173D01*
X-77641Y-108620D01*
X-77047Y-103095D01*
X-76815Y-101807D01*
X-76815D01*
X-76808Y-101640D01*
X-76877Y-101289D01*
X-77076Y-100991D01*
X-77150Y-100888D01*
X-77150Y-100888D01*
X-79216Y-99334D01*
X-84661Y-94736D01*
X-89840Y-89840D01*
X-94736Y-84661D01*
X-99334Y-79216D01*
X-103619Y-73522D01*
X-107579Y-67596D01*
X-111199Y-61458D01*
X-114471Y-55126D01*
X-117381Y-48621D01*
X-119923Y-41963D01*
X-122087Y-35173D01*
X-123867Y-28272D01*
X-125258Y-21282D01*
X-126254Y-14225D01*
X-126853Y-7124D01*
X-127053Y0D01*
X-126853Y7124D01*
X-126254Y14225D01*
X-125258Y21282D01*
X-123867Y28272D01*
X-122087Y35173D01*
X-119923Y41963D01*
X-117381Y48621D01*
X-114471Y55126D01*
X-111199Y61458D01*
X-107579Y67596D01*
X-103619Y73522D01*
X-99334Y79216D01*
X-94736Y84661D01*
X-89840Y89840D01*
X-84661Y94736D01*
X-79216Y99334D01*
X-73522Y103619D01*
X-67596Y107579D01*
X-61458Y111199D01*
X-55126Y114471D01*
X-48621Y117381D01*
X-41963Y119923D01*
X-35173Y122087D01*
X-28272Y123867D01*
X-21282Y125258D01*
X-14225Y126254D01*
X-7124Y126853D01*
X0Y127053D01*
X7124Y126853D01*
D02*
G37*
%LPC*%
G36*
X-14764Y-49187D02*
X-15150Y-49264D01*
X-15478Y-49483D01*
X-15697Y-49810D01*
X-15774Y-50197D01*
Y-56102D01*
X-15697Y-56489D01*
X-15478Y-56817D01*
X-15150Y-57035D01*
X-14764Y-57112D01*
X-14377Y-57035D01*
X-14050Y-56817D01*
X-13831Y-56489D01*
X-13754Y-56102D01*
Y-50197D01*
X-13831Y-49810D01*
X-14050Y-49483D01*
X-14377Y-49264D01*
X-14764Y-49187D01*
D02*
G37*
G36*
X-500Y99871D02*
X-6500Y99689D01*
X-12478Y99146D01*
X-18412Y98243D01*
X-24281Y96983D01*
X-30063Y95371D01*
X-35737Y93413D01*
X-41283Y91116D01*
X-46680Y88488D01*
X-51908Y85539D01*
X-56949Y82280D01*
X-61784Y78723D01*
X-66395Y74880D01*
X-70766Y70766D01*
X-74880Y66395D01*
X-78723Y61784D01*
X-82280Y56949D01*
X-85539Y51908D01*
X-88488Y46680D01*
X-91116Y41283D01*
X-93413Y35737D01*
X-95371Y30063D01*
X-96983Y24281D01*
X-98243Y18412D01*
X-99146Y12478D01*
X-99689Y6500D01*
X-99871Y500D01*
X-99689Y-5500D01*
X-99146Y-11478D01*
X-98243Y-17412D01*
X-96983Y-23281D01*
X-95371Y-29063D01*
X-93413Y-34737D01*
X-91116Y-40283D01*
X-88488Y-45680D01*
X-85539Y-50908D01*
X-82280Y-55949D01*
X-78723Y-60784D01*
X-74880Y-65395D01*
X-70766Y-69766D01*
X-67458Y-72879D01*
X-67370Y-73010D01*
X-67164Y-73148D01*
X-67071Y-73630D01*
X-67069Y-73685D01*
X-67321Y-73990D01*
X-68655D01*
X-68789Y-73789D01*
X-69345Y-73418D01*
X-70000Y-73288D01*
X-70655Y-73418D01*
X-71211Y-73789D01*
X-71582Y-74345D01*
X-71712Y-75000D01*
X-71582Y-75655D01*
X-71211Y-76211D01*
X-70655Y-76582D01*
X-70000Y-76712D01*
X-69345Y-76582D01*
X-68789Y-76211D01*
X-68655Y-76010D01*
X-66748D01*
X-66361Y-75933D01*
X-66034Y-75714D01*
X-55391Y-65071D01*
X-41368D01*
Y-66018D01*
X-36632D01*
Y-65071D01*
X-32857D01*
X-31072Y-66856D01*
X-30745Y-67075D01*
X-30358Y-67152D01*
X12348D01*
Y-74223D01*
X9054Y-77518D01*
X-11669D01*
X-12056Y-77595D01*
X-12383Y-77813D01*
X-15478Y-80908D01*
X-15697Y-81235D01*
X-15774Y-81622D01*
Y-93898D01*
Y-95840D01*
X-17500D01*
X-17887Y-95917D01*
X-18214Y-96136D01*
X-19364Y-97286D01*
X-19583Y-97614D01*
X-19660Y-98000D01*
Y-102631D01*
X-21018D01*
Y-107369D01*
X-16281D01*
Y-102631D01*
X-17640D01*
Y-98418D01*
X-17082Y-97860D01*
X-15774D01*
Y-99803D01*
X-15697Y-100190D01*
X-15478Y-100517D01*
X-15150Y-100736D01*
X-14764Y-100813D01*
X-14377Y-100736D01*
X-14050Y-100517D01*
X-13831Y-100190D01*
X-13754Y-99803D01*
Y-93898D01*
Y-82040D01*
X-11251Y-79537D01*
X9472D01*
X9859Y-79461D01*
X10187Y-79242D01*
X14072Y-75356D01*
X14291Y-75028D01*
X14368Y-74642D01*
Y-66560D01*
X15478Y-65450D01*
X15697Y-65123D01*
X15774Y-64736D01*
Y-53150D01*
Y-50197D01*
Y-45453D01*
X17518D01*
Y-40716D01*
X12781D01*
Y-45453D01*
X13754D01*
Y-50197D01*
Y-53150D01*
Y-56102D01*
Y-64318D01*
X12940Y-65132D01*
X-10050D01*
X-10242Y-64670D01*
X-10113Y-64541D01*
X-9894Y-64213D01*
X-9817Y-63827D01*
Y-57255D01*
X-9317Y-56987D01*
X-9245Y-57035D01*
X-8858Y-57112D01*
X-8472Y-57035D01*
X-8144Y-56817D01*
X-7604D01*
X-7276Y-57035D01*
X-6890Y-57112D01*
X-6503Y-57035D01*
X-6176Y-56817D01*
X-5635D01*
X-5308Y-57035D01*
X-4921Y-57112D01*
X-4535Y-57035D01*
X-4207Y-56817D01*
X-3667D01*
X-3339Y-57035D01*
X-2953Y-57112D01*
X-2566Y-57035D01*
X-2239Y-56817D01*
X-1698D01*
X-1371Y-57035D01*
X-984Y-57112D01*
X-598Y-57035D01*
X-270Y-56817D01*
X270D01*
X598Y-57035D01*
X984Y-57112D01*
X1371Y-57035D01*
X1698Y-56817D01*
X2239D01*
X2566Y-57035D01*
X2953Y-57112D01*
X3339Y-57035D01*
X3667Y-56817D01*
X4207D01*
X4535Y-57035D01*
X4921Y-57112D01*
X5308Y-57035D01*
X5635Y-56817D01*
X6176D01*
X6503Y-57035D01*
X6890Y-57112D01*
X7276Y-57035D01*
X7604Y-56817D01*
X8144D01*
X8472Y-57035D01*
X8858Y-57112D01*
X9245Y-57035D01*
X9572Y-56817D01*
X10113D01*
X10440Y-57035D01*
X10827Y-57112D01*
X11213Y-57035D01*
X11541Y-56817D01*
X11760Y-56489D01*
X11837Y-56102D01*
Y-50197D01*
X11760Y-49810D01*
X11541Y-49483D01*
X11213Y-49264D01*
X10827Y-49187D01*
X10440Y-49264D01*
X10113Y-49483D01*
X9572D01*
X9245Y-49264D01*
X8858Y-49187D01*
X8472Y-49264D01*
X8144Y-49483D01*
X7604D01*
X7276Y-49264D01*
X6890Y-49187D01*
X6503Y-49264D01*
X6176Y-49483D01*
X5635D01*
X5308Y-49264D01*
X4921Y-49187D01*
X4535Y-49264D01*
X4207Y-49483D01*
X3667D01*
X3339Y-49264D01*
X2953Y-49187D01*
X2566Y-49264D01*
X2239Y-49483D01*
X1698D01*
X1371Y-49264D01*
X984Y-49187D01*
X598Y-49264D01*
X270Y-49483D01*
X-270D01*
X-598Y-49264D01*
X-984Y-49187D01*
X-1371Y-49264D01*
X-1698Y-49483D01*
X-2239D01*
X-2566Y-49264D01*
X-2953Y-49187D01*
X-3339Y-49264D01*
X-3667Y-49483D01*
X-4207D01*
X-4535Y-49264D01*
X-4921Y-49187D01*
X-5308Y-49264D01*
X-5635Y-49483D01*
X-6176D01*
X-6503Y-49264D01*
X-6890Y-49187D01*
X-7276Y-49264D01*
X-7604Y-49483D01*
X-8144D01*
X-8472Y-49264D01*
X-8858Y-49187D01*
X-9245Y-49264D01*
X-9317Y-49312D01*
X-9817Y-49045D01*
Y-45234D01*
X-8482D01*
Y-40497D01*
X-13219D01*
Y-45234D01*
X-11837D01*
Y-50197D01*
Y-53150D01*
Y-56102D01*
Y-63408D01*
X-13560Y-65132D01*
X-17745D01*
X-18013Y-64632D01*
X-17965Y-64560D01*
X-17888Y-64173D01*
X-17965Y-63787D01*
X-18183Y-63459D01*
Y-62919D01*
X-17965Y-62591D01*
X-17888Y-62205D01*
X-17965Y-61818D01*
X-18183Y-61491D01*
Y-60950D01*
X-17965Y-60623D01*
X-17888Y-60236D01*
X-17965Y-59850D01*
X-18183Y-59522D01*
X-18511Y-59303D01*
X-18898Y-59226D01*
X-24803D01*
X-25190Y-59303D01*
X-25517Y-59522D01*
X-25736Y-59850D01*
X-25813Y-60236D01*
X-25736Y-60623D01*
X-25517Y-60950D01*
Y-61491D01*
X-25736Y-61818D01*
X-25813Y-62205D01*
X-25736Y-62591D01*
X-25517Y-62919D01*
Y-63459D01*
X-25736Y-63787D01*
X-25813Y-64173D01*
X-25736Y-64560D01*
X-25688Y-64632D01*
X-25955Y-65132D01*
X-29940D01*
X-31725Y-63347D01*
X-32052Y-63128D01*
X-32439Y-63051D01*
X-36632D01*
Y-61281D01*
X-41368D01*
Y-63051D01*
X-55809D01*
X-56195Y-63128D01*
X-56523Y-63347D01*
X-63985Y-70809D01*
X-64370Y-70487D01*
X-62314Y-67526D01*
X-58827Y-63199D01*
X-55041Y-59132D01*
X-50974Y-55346D01*
X-46648Y-51859D01*
X-42083Y-48690D01*
X-37305Y-45855D01*
X-32336Y-43368D01*
X-27202Y-41241D01*
X-21930Y-39487D01*
X-16546Y-38112D01*
X-11078Y-37126D01*
X-5553Y-36532D01*
X0Y-36334D01*
X5553Y-36532D01*
X11078Y-37126D01*
X16546Y-38112D01*
X21930Y-39487D01*
X27202Y-41241D01*
X32336Y-43368D01*
X37305Y-45855D01*
X42083Y-48690D01*
X46648Y-51859D01*
X50974Y-55346D01*
X55041Y-59132D01*
X58827Y-63199D01*
X62314Y-67526D01*
X65483Y-72090D01*
X65566Y-72231D01*
X65571Y-72227D01*
X65681Y-72391D01*
X65978Y-72590D01*
X66330Y-72660D01*
X66596Y-72607D01*
X66681Y-72590D01*
X66735Y-72554D01*
X66738Y-72553D01*
X67006Y-72374D01*
X67001Y-72368D01*
X69766Y-69766D01*
X73880Y-65395D01*
X77723Y-60784D01*
X81280Y-55949D01*
X84539Y-50908D01*
X87488Y-45680D01*
X90116Y-40283D01*
X92413Y-34737D01*
X94371Y-29063D01*
X95983Y-23281D01*
X97243Y-17412D01*
X98146Y-11478D01*
X98689Y-5500D01*
X98870Y500D01*
X98689Y6500D01*
X98146Y12478D01*
X97243Y18412D01*
X95983Y24281D01*
X94371Y30063D01*
X92413Y35737D01*
X90116Y41283D01*
X87488Y46680D01*
X84539Y51908D01*
X81280Y56949D01*
X77723Y61784D01*
X73880Y66395D01*
X69766Y70766D01*
X65395Y74880D01*
X60784Y78723D01*
X55949Y82280D01*
X50908Y85539D01*
X45680Y88488D01*
X40283Y91116D01*
X34737Y93413D01*
X29063Y95371D01*
X23281Y96983D01*
X17412Y98243D01*
X11478Y99146D01*
X5500Y99689D01*
X-500Y99871D01*
D02*
G37*
G36*
X-18898Y-69069D02*
X-24803D01*
X-25190Y-69146D01*
X-25517Y-69365D01*
X-25736Y-69692D01*
X-25813Y-70079D01*
X-25736Y-70465D01*
X-25517Y-70793D01*
Y-71333D01*
X-25736Y-71661D01*
X-25813Y-72047D01*
X-25736Y-72434D01*
X-25517Y-72761D01*
Y-73302D01*
X-25736Y-73629D01*
X-25813Y-74016D01*
X-25736Y-74402D01*
X-25688Y-74474D01*
X-25955Y-74974D01*
X-28097D01*
X-31093Y-71979D01*
X-31196Y-71460D01*
X-31502Y-71002D01*
X-31960Y-70696D01*
X-32500Y-70589D01*
X-57582D01*
X-58122Y-70696D01*
X-58580Y-71002D01*
X-73167Y-85589D01*
X-73589D01*
X-73845Y-85418D01*
X-74500Y-85288D01*
X-75155Y-85418D01*
X-75711Y-85789D01*
X-76082Y-86345D01*
X-76212Y-87000D01*
X-76082Y-87655D01*
X-75711Y-88211D01*
X-75155Y-88582D01*
X-74500Y-88712D01*
X-73845Y-88582D01*
X-73589Y-88411D01*
X-72582D01*
X-72042Y-88304D01*
X-71584Y-87998D01*
X-56998Y-73411D01*
X-32517D01*
X-29230Y-76698D01*
X-28902Y-76917D01*
X-28516Y-76994D01*
X-25955D01*
X-25688Y-77494D01*
X-25736Y-77566D01*
X-25813Y-77953D01*
X-25736Y-78339D01*
X-25626Y-78504D01*
X-25842Y-78998D01*
X-25848Y-79004D01*
X-28226D01*
X-29351Y-77879D01*
X-29649Y-77680D01*
X-30000Y-77610D01*
X-34565D01*
Y-73994D01*
X-43435D01*
Y-77610D01*
X-48560D01*
Y-76131D01*
X-53297D01*
Y-80869D01*
X-48560D01*
Y-79445D01*
X-43435D01*
Y-83061D01*
X-34565D01*
Y-79445D01*
X-30380D01*
X-29284Y-80541D01*
X-29271Y-80691D01*
X-29345Y-81112D01*
X-29539Y-81241D01*
X-38236Y-89939D01*
X-43435D01*
Y-93555D01*
X-48482D01*
Y-92132D01*
X-53219D01*
Y-96868D01*
X-48482D01*
Y-95390D01*
X-43435D01*
Y-99006D01*
X-34565D01*
Y-89939D01*
X-34988D01*
X-35179Y-89477D01*
X-28510Y-82807D01*
X-25848D01*
X-25842Y-82813D01*
X-25626Y-83307D01*
X-25736Y-83472D01*
X-25813Y-83858D01*
X-25736Y-84245D01*
X-25517Y-84572D01*
Y-85113D01*
X-25736Y-85440D01*
X-25813Y-85827D01*
X-25736Y-86213D01*
X-25517Y-86541D01*
Y-87081D01*
X-25736Y-87409D01*
X-25813Y-87795D01*
X-25736Y-88182D01*
X-25517Y-88509D01*
Y-89050D01*
X-25736Y-89377D01*
X-25813Y-89764D01*
X-25736Y-90150D01*
X-25517Y-90478D01*
X-25190Y-90697D01*
X-24803Y-90774D01*
X-18898D01*
X-18511Y-90697D01*
X-18183Y-90478D01*
X-17965Y-90150D01*
X-17888Y-89764D01*
X-17965Y-89377D01*
X-18183Y-89050D01*
Y-88509D01*
X-17965Y-88182D01*
X-17888Y-87795D01*
X-17965Y-87409D01*
X-18183Y-87081D01*
Y-86541D01*
X-17965Y-86213D01*
X-17888Y-85827D01*
X-17965Y-85440D01*
X-18183Y-85113D01*
Y-84572D01*
X-17965Y-84245D01*
X-17888Y-83858D01*
X-17965Y-83472D01*
X-18183Y-83144D01*
Y-82604D01*
X-17965Y-82276D01*
X-17888Y-81890D01*
X-17965Y-81503D01*
X-18183Y-81176D01*
Y-80635D01*
X-17965Y-80308D01*
X-17888Y-79921D01*
X-17965Y-79535D01*
X-18074Y-79370D01*
X-17858Y-78876D01*
X-17853Y-78870D01*
X-16953D01*
X-16602Y-78800D01*
X-16304Y-78602D01*
X-9620Y-71918D01*
X7093D01*
X7289Y-72211D01*
X7845Y-72582D01*
X8500Y-72712D01*
X9155Y-72582D01*
X9711Y-72211D01*
X10082Y-71655D01*
X10212Y-71000D01*
X10082Y-70345D01*
X9711Y-69789D01*
X9155Y-69418D01*
X8500Y-69288D01*
X7845Y-69418D01*
X7289Y-69789D01*
X7093Y-70082D01*
X-10000D01*
X-10351Y-70152D01*
X-10649Y-70351D01*
X-17333Y-77035D01*
X-17853D01*
X-17858Y-77030D01*
X-18074Y-76535D01*
X-17965Y-76371D01*
X-17888Y-75984D01*
X-17965Y-75598D01*
X-18183Y-75270D01*
Y-74730D01*
X-17965Y-74402D01*
X-17888Y-74016D01*
X-17965Y-73629D01*
X-18183Y-73302D01*
Y-72761D01*
X-17965Y-72434D01*
X-17888Y-72047D01*
X-17965Y-71661D01*
X-18183Y-71333D01*
Y-70793D01*
X-17965Y-70465D01*
X-17888Y-70079D01*
X-17965Y-69692D01*
X-18183Y-69365D01*
X-18511Y-69146D01*
X-18898Y-69069D01*
D02*
G37*
G36*
X24803Y-59226D02*
X18898D01*
X18511Y-59303D01*
X18183Y-59522D01*
X17965Y-59850D01*
X17888Y-60236D01*
X17965Y-60623D01*
X18183Y-60950D01*
Y-61491D01*
X17965Y-61818D01*
X17888Y-62205D01*
X17965Y-62591D01*
X18183Y-62919D01*
Y-63459D01*
X17965Y-63787D01*
X17888Y-64173D01*
X17965Y-64560D01*
X18183Y-64887D01*
Y-65428D01*
X17965Y-65755D01*
X17888Y-66142D01*
X17965Y-66528D01*
X18183Y-66856D01*
Y-67396D01*
X17965Y-67724D01*
X17888Y-68110D01*
X17965Y-68497D01*
X18183Y-68824D01*
Y-69365D01*
X17965Y-69692D01*
X17888Y-70079D01*
X17965Y-70465D01*
X18183Y-70793D01*
Y-71333D01*
X17965Y-71661D01*
X17888Y-72047D01*
X17965Y-72434D01*
X18183Y-72761D01*
Y-73302D01*
X17965Y-73629D01*
X17888Y-74016D01*
X17965Y-74402D01*
X18183Y-74730D01*
Y-75270D01*
X17965Y-75598D01*
X17888Y-75984D01*
X17965Y-76371D01*
X18183Y-76698D01*
Y-77239D01*
X17965Y-77566D01*
X17888Y-77953D01*
X17965Y-78339D01*
X18183Y-78667D01*
Y-79207D01*
X17965Y-79535D01*
X17888Y-79921D01*
X17965Y-80308D01*
X18183Y-80635D01*
Y-81176D01*
X17965Y-81503D01*
X17888Y-81890D01*
X17965Y-82276D01*
X18183Y-82604D01*
Y-83144D01*
X17965Y-83472D01*
X17888Y-83858D01*
X17965Y-84245D01*
X18013Y-84317D01*
X17745Y-84817D01*
X3242D01*
X660Y-82234D01*
X582Y-81845D01*
X211Y-81289D01*
X-345Y-80918D01*
X-1000Y-80788D01*
X-1655Y-80918D01*
X-2211Y-81289D01*
X-2582Y-81845D01*
X-2712Y-82500D01*
X-2582Y-83155D01*
X-2211Y-83711D01*
X-1655Y-84082D01*
X-1000Y-84212D01*
X-348Y-84083D01*
X2110Y-86541D01*
X2437Y-86760D01*
X2824Y-86837D01*
X24803D01*
X25190Y-86760D01*
X25517Y-86541D01*
X25736Y-86213D01*
X25813Y-85827D01*
X25736Y-85440D01*
X25517Y-85113D01*
Y-84572D01*
X25736Y-84245D01*
X25813Y-83858D01*
X25736Y-83472D01*
X25517Y-83144D01*
Y-82604D01*
X25736Y-82276D01*
X25813Y-81890D01*
X25736Y-81503D01*
X25517Y-81176D01*
Y-80635D01*
X25736Y-80308D01*
X25813Y-79921D01*
X25736Y-79535D01*
X25517Y-79207D01*
Y-78667D01*
X25736Y-78339D01*
X25813Y-77953D01*
X25736Y-77566D01*
X25517Y-77239D01*
Y-76698D01*
X25736Y-76371D01*
X25813Y-75984D01*
X25736Y-75598D01*
X25517Y-75270D01*
Y-74730D01*
X25736Y-74402D01*
X25813Y-74016D01*
X25736Y-73629D01*
X25517Y-73302D01*
Y-72761D01*
X25736Y-72434D01*
X25813Y-72047D01*
X25736Y-71661D01*
X25517Y-71333D01*
Y-70793D01*
X25736Y-70465D01*
X25813Y-70079D01*
X25736Y-69692D01*
X25517Y-69365D01*
Y-68824D01*
X25736Y-68497D01*
X25813Y-68110D01*
X25736Y-67724D01*
X25517Y-67396D01*
Y-66856D01*
X25736Y-66528D01*
X25813Y-66142D01*
X25736Y-65755D01*
X25517Y-65428D01*
Y-64887D01*
X25736Y-64560D01*
X25813Y-64173D01*
X25736Y-63787D01*
X25517Y-63459D01*
Y-62919D01*
X25736Y-62591D01*
X25813Y-62205D01*
X25736Y-61818D01*
X25517Y-61491D01*
Y-60950D01*
X25736Y-60623D01*
X25813Y-60236D01*
X25736Y-59850D01*
X25517Y-59522D01*
X25190Y-59303D01*
X24803Y-59226D01*
D02*
G37*
G36*
X39500Y-73288D02*
X38845Y-73418D01*
X38289Y-73789D01*
X37918Y-74345D01*
X37788Y-75000D01*
X37918Y-75655D01*
X38289Y-76211D01*
X38490Y-76345D01*
Y-88582D01*
X35432Y-91640D01*
X32368D01*
Y-90281D01*
X27632D01*
Y-91640D01*
X23068D01*
X22860Y-91432D01*
Y-90774D01*
X24803D01*
X25190Y-90697D01*
X25517Y-90478D01*
X25736Y-90150D01*
X25813Y-89764D01*
X25736Y-89377D01*
X25517Y-89050D01*
X25190Y-88831D01*
X24803Y-88754D01*
X18898D01*
X18511Y-88831D01*
X18183Y-89050D01*
X17965Y-89377D01*
X17888Y-89764D01*
X17965Y-90150D01*
X18183Y-90478D01*
X18511Y-90697D01*
X18898Y-90774D01*
X20840D01*
Y-91850D01*
X20917Y-92237D01*
X21136Y-92564D01*
X21936Y-93364D01*
X22263Y-93583D01*
X22650Y-93660D01*
X27632D01*
Y-95018D01*
X32368D01*
Y-93660D01*
X35850D01*
X36237Y-93583D01*
X36565Y-93364D01*
X40214Y-89714D01*
X40433Y-89386D01*
X40510Y-89000D01*
Y-76345D01*
X40711Y-76211D01*
X41082Y-75655D01*
X41212Y-75000D01*
X41082Y-74345D01*
X40711Y-73789D01*
X40155Y-73418D01*
X39500Y-73288D01*
D02*
G37*
G36*
X-10500Y-81288D02*
X-11155Y-81418D01*
X-11711Y-81789D01*
X-12082Y-82345D01*
X-12212Y-83000D01*
X-12082Y-83655D01*
X-11711Y-84211D01*
X-11473Y-84370D01*
X-11433Y-84571D01*
X-11214Y-84899D01*
X-6899Y-89214D01*
X-6572Y-89433D01*
X-6185Y-89510D01*
X11082D01*
X13846Y-92274D01*
Y-92853D01*
X13841Y-92858D01*
X13346Y-93074D01*
X13182Y-92965D01*
X12795Y-92888D01*
X12409Y-92965D01*
X12081Y-93183D01*
X11541D01*
X11213Y-92965D01*
X10827Y-92888D01*
X10440Y-92965D01*
X10113Y-93183D01*
X9572D01*
X9245Y-92965D01*
X8858Y-92888D01*
X8472Y-92965D01*
X8144Y-93183D01*
X7604D01*
X7276Y-92965D01*
X6890Y-92888D01*
X6503Y-92965D01*
X6176Y-93183D01*
X5635D01*
X5308Y-92965D01*
X4921Y-92888D01*
X4535Y-92965D01*
X4207Y-93183D01*
X3667D01*
X3339Y-92965D01*
X2953Y-92888D01*
X2566Y-92965D01*
X2239Y-93183D01*
X1698D01*
X1371Y-92965D01*
X984Y-92888D01*
X598Y-92965D01*
X270Y-93183D01*
X-270D01*
X-598Y-92965D01*
X-984Y-92888D01*
X-1371Y-92965D01*
X-1698Y-93183D01*
X-2239D01*
X-2566Y-92965D01*
X-2953Y-92888D01*
X-3339Y-92965D01*
X-3667Y-93183D01*
X-4207D01*
X-4535Y-92965D01*
X-4921Y-92888D01*
X-5308Y-92965D01*
X-5635Y-93183D01*
X-5854Y-93511D01*
X-5931Y-93898D01*
Y-99803D01*
X-5854Y-100190D01*
X-5635Y-100517D01*
X-5308Y-100736D01*
X-4921Y-100813D01*
X-4535Y-100736D01*
X-4207Y-100517D01*
X-3667D01*
X-3339Y-100736D01*
X-2953Y-100813D01*
X-2566Y-100736D01*
X-2494Y-100688D01*
X-1994Y-100955D01*
Y-108323D01*
X-3161Y-109490D01*
X-65155D01*
X-65289Y-109289D01*
X-65845Y-108918D01*
X-66500Y-108788D01*
X-67155Y-108918D01*
X-67711Y-109289D01*
X-68082Y-109845D01*
X-68212Y-110500D01*
X-68082Y-111155D01*
X-67711Y-111711D01*
X-67155Y-112082D01*
X-66500Y-112212D01*
X-65845Y-112082D01*
X-65289Y-111711D01*
X-65155Y-111510D01*
X-2743D01*
X-2356Y-111433D01*
X-2028Y-111214D01*
X-270Y-109456D01*
X-51Y-109128D01*
X26Y-108742D01*
Y-100955D01*
X526Y-100688D01*
X598Y-100736D01*
X984Y-100813D01*
X1371Y-100736D01*
X1698Y-100517D01*
X2239D01*
X2566Y-100736D01*
X2953Y-100813D01*
X3339Y-100736D01*
X3667Y-100517D01*
X4207D01*
X4535Y-100736D01*
X4921Y-100813D01*
X5308Y-100736D01*
X5635Y-100517D01*
X6176D01*
X6503Y-100736D01*
X6890Y-100813D01*
X7276Y-100736D01*
X7604Y-100517D01*
X8144D01*
X8472Y-100736D01*
X8858Y-100813D01*
X9245Y-100736D01*
X9409Y-100626D01*
X9904Y-100842D01*
X9909Y-100848D01*
Y-107093D01*
X9616Y-107289D01*
X9245Y-107845D01*
X9114Y-108500D01*
X9245Y-109155D01*
X9616Y-109711D01*
X10171Y-110082D01*
X10827Y-110212D01*
X11482Y-110082D01*
X12038Y-109711D01*
X12409Y-109155D01*
X12539Y-108500D01*
X12409Y-107845D01*
X12038Y-107289D01*
X11744Y-107093D01*
Y-100848D01*
X11750Y-100842D01*
X12244Y-100626D01*
X12409Y-100736D01*
X12795Y-100813D01*
X13182Y-100736D01*
X13509Y-100517D01*
X14050D01*
X14377Y-100736D01*
X14764Y-100813D01*
X15150Y-100736D01*
X15478Y-100517D01*
X15697Y-100190D01*
X15774Y-99803D01*
Y-93898D01*
X15697Y-93511D01*
X15681Y-93488D01*
Y-92173D01*
X15697Y-92150D01*
X15774Y-91764D01*
X15697Y-91377D01*
X15478Y-91050D01*
X12214Y-87786D01*
X11886Y-87567D01*
X11500Y-87490D01*
X-5767D01*
X-9192Y-84065D01*
X-8918Y-83655D01*
X-8788Y-83000D01*
X-8918Y-82345D01*
X-9289Y-81789D01*
X-9845Y-81418D01*
X-10500Y-81288D01*
D02*
G37*
G36*
X-8858Y-92888D02*
X-9245Y-92965D01*
X-9572Y-93183D01*
X-10113D01*
X-10440Y-92965D01*
X-10827Y-92888D01*
X-11213Y-92965D01*
X-11541Y-93183D01*
X-11760Y-93511D01*
X-11837Y-93898D01*
Y-99803D01*
X-11760Y-100190D01*
X-11541Y-100517D01*
X-11213Y-100736D01*
X-10827Y-100813D01*
X-10440Y-100736D01*
X-10113Y-100517D01*
X-9572D01*
X-9245Y-100736D01*
X-8858Y-100813D01*
X-8472Y-100736D01*
X-8144Y-100517D01*
X-7925Y-100190D01*
X-7848Y-99803D01*
Y-93898D01*
X-7925Y-93511D01*
X-8144Y-93183D01*
X-8472Y-92965D01*
X-8858Y-92888D01*
D02*
G37*
G36*
X46148Y-141175D02*
X40348D01*
Y-149160D01*
X38776D01*
X37851Y-149344D01*
X37068Y-149867D01*
X19850Y-167085D01*
X-24323D01*
X-40348Y-151060D01*
Y-141175D01*
X-46148D01*
Y-143067D01*
X-58500D01*
X-58806Y-143194D01*
X-58933Y-143500D01*
Y-160500D01*
X-58806Y-160806D01*
X-58500Y-160933D01*
X-46148D01*
Y-161975D01*
X-40348D01*
Y-158543D01*
X-39886Y-158352D01*
X-27030Y-171208D01*
X-26247Y-171731D01*
X-25323Y-171915D01*
X20850D01*
X21775Y-171731D01*
X22558Y-171208D01*
X39776Y-153990D01*
X40348D01*
Y-161975D01*
X46148D01*
Y-141175D01*
D02*
G37*
%LPD*%
D11*
X-10000Y-71000D02*
X8500D01*
X-16953Y-77953D02*
X-10000Y-71000D01*
X-21850Y-77953D02*
X-16953D01*
X10827Y-108500D02*
Y-96850D01*
X14764D02*
Y-91764D01*
X-52031Y-94500D02*
X-52004Y-94472D01*
X-39000D01*
X-52109Y-78500D02*
X-52082Y-78528D01*
X-39000D01*
Y-92000D02*
X-28890Y-81890D01*
X-39000Y-94472D02*
Y-92000D01*
X-28890Y-81890D02*
X-21850D01*
X-39000Y-78528D02*
X-30000D01*
X-28606Y-79921D01*
X-21850D01*
D15*
X-50928Y-78500D02*
D03*
X-57227D02*
D03*
X-50850Y-94500D02*
D03*
X-57150D02*
D03*
X-12350Y-105000D02*
D03*
X-18650D02*
D03*
X8850Y-43084D02*
D03*
X15150D02*
D03*
X-17150Y-42865D02*
D03*
X-10850D02*
D03*
D19*
X-43248Y-151575D02*
D03*
X43248D02*
D03*
D20*
X0D02*
D03*
D62*
X-57582Y-72000D02*
X-32500D01*
X-72582Y-87000D02*
X-57582Y-72000D01*
X-74500Y-87000D02*
X-72582D01*
D63*
X13358Y-74642D02*
Y-66142D01*
X9472Y-78528D02*
X13358Y-74642D01*
X-11669Y-78528D02*
X9472D01*
X-14764Y-81622D02*
X-11669Y-78528D01*
X-14764Y-96850D02*
Y-81622D01*
X-70000Y-75000D02*
X-66748D01*
X-32500Y-72000D02*
X-28516Y-75984D01*
X-21850D01*
X-66748Y-75000D02*
X-55809Y-64061D01*
X-66500Y-110500D02*
X-2743D01*
X-984Y-108742D01*
Y-96850D01*
X-21850Y-66142D02*
X-13142D01*
X14764Y-64736D02*
Y-53150D01*
X13358Y-66142D02*
X14764Y-64736D01*
X-13142Y-66142D02*
X13358D01*
X-10827Y-63827D02*
Y-53150D01*
X-13142Y-66142D02*
X-10827Y-63827D01*
X39500Y-89000D02*
Y-75000D01*
X35850Y-92650D02*
X39500Y-89000D01*
X30000Y-92650D02*
X35850D01*
X-1000Y-96866D02*
X-984Y-96850D01*
X-10500Y-84185D02*
Y-83000D01*
Y-84185D02*
X-6185Y-88500D01*
X11500D01*
X14764Y-91764D01*
X-1000Y-82500D02*
X-503D01*
X2824Y-85827D01*
X21850D01*
X22650Y-92650D02*
X30000D01*
X21850Y-91850D02*
X22650Y-92650D01*
X21850Y-91850D02*
Y-89764D01*
X14764Y-43470D02*
X15150Y-43084D01*
X14764Y-53150D02*
Y-43470D01*
X-10850Y-42865D02*
X-10827Y-42889D01*
Y-53150D02*
Y-42889D01*
X-55809Y-64061D02*
X-32439D01*
X-30358Y-66142D01*
X-21850D01*
X-18650Y-105000D02*
Y-98000D01*
X-17500Y-96850D01*
X-14764D01*
D64*
X38776Y-151575D02*
X43248D01*
X20850Y-169500D02*
X38776Y-151575D01*
X-25323Y-169500D02*
X20850D01*
X-43248Y-151575D02*
X-25323Y-169500D01*
X-43323Y-151500D02*
X-43248Y-151575D01*
D66*
X6176Y-157000D02*
D03*
X588D02*
D03*
X-5000D02*
D03*
Y-151500D02*
D03*
X588D02*
D03*
X6176D02*
D03*
X6176Y-146000D02*
D03*
X434D02*
D03*
X-5308D02*
D03*
X-74000Y-100813D02*
D03*
X-74687Y-105500D02*
D03*
X-74500Y-110500D02*
D03*
X-74687Y-115500D02*
D03*
X-74500Y-121000D02*
D03*
X-74687Y-127000D02*
D03*
X-74000Y-132000D02*
D03*
X-72071Y-138000D02*
D03*
X-69500Y-143500D02*
D03*
X-67458Y-149000D02*
D03*
X-64370Y-153500D02*
D03*
X-61000Y-158543D02*
D03*
X-56046Y-164500D02*
D03*
X-52000Y-168000D02*
D03*
X-49000Y-171000D02*
D03*
X-46000Y-174000D02*
D03*
X-41000Y-176952D02*
D03*
X-36500Y-179656D02*
D03*
X-31500Y-181500D02*
D03*
X-26772Y-181000D02*
D03*
X-22000Y-179126D02*
D03*
X-17500Y-177000D02*
D03*
X-12500Y-175500D02*
D03*
X-7500Y-174000D02*
D03*
X-1000Y-173500D02*
D03*
X4535Y-174000D02*
D03*
X9409Y-175000D02*
D03*
X14500Y-176403D02*
D03*
X19000Y-177500D02*
D03*
X23068Y-180000D02*
D03*
X28000Y-182000D02*
D03*
X33000D02*
D03*
X38000Y-179500D02*
D03*
X43248Y-176000D02*
D03*
X48000Y-173000D02*
D03*
X53000Y-169000D02*
D03*
X57000Y-164500D02*
D03*
X60500Y-160000D02*
D03*
X64500Y-155000D02*
D03*
X67000Y-149867D02*
D03*
X69753Y-145000D02*
D03*
X71424Y-140000D02*
D03*
X72932Y-135000D02*
D03*
X74598Y-130000D02*
D03*
X75000Y-125251D02*
D03*
X76000Y-119726D02*
D03*
Y-115000D02*
D03*
X76096Y-110082D02*
D03*
X75500Y-105000D02*
D03*
X75000Y-100000D02*
D03*
X79500Y-97286D02*
D03*
X84500Y-92500D02*
D03*
X89840Y-87000D02*
D03*
X94736Y-82000D02*
D03*
X98870Y-77500D02*
D03*
X102500Y-72211D02*
D03*
X105500Y-67526D02*
D03*
X108500Y-62500D02*
D03*
X111000Y-57500D02*
D03*
X114000Y-52500D02*
D03*
X116000Y-47596D02*
D03*
X118000Y-42500D02*
D03*
X119923Y-37500D02*
D03*
X121000Y-32500D02*
D03*
X122087Y-27500D02*
D03*
X123000Y-22500D02*
D03*
X124000Y-17412D02*
D03*
X125000Y-12500D02*
D03*
Y-7356D02*
D03*
Y-2500D02*
D03*
Y2000D02*
D03*
X124500Y7500D02*
D03*
Y12500D02*
D03*
X124000Y17467D02*
D03*
X123000Y22500D02*
D03*
X122000Y27500D02*
D03*
X121000Y32500D02*
D03*
X119500Y37500D02*
D03*
X117500Y42500D02*
D03*
X115500Y47500D02*
D03*
X113500Y52500D02*
D03*
X111199Y57500D02*
D03*
X108000Y63000D02*
D03*
X104500Y69000D02*
D03*
X100000Y75000D02*
D03*
X95000Y80936D02*
D03*
X90000Y87000D02*
D03*
X85000Y92000D02*
D03*
X79936Y96000D02*
D03*
X75000Y100000D02*
D03*
X70000Y103619D02*
D03*
X65000Y107500D02*
D03*
X60000Y110000D02*
D03*
X55000Y112500D02*
D03*
X50000Y114500D02*
D03*
X45031Y116500D02*
D03*
X40000Y118500D02*
D03*
X35000Y119923D02*
D03*
X30000Y121500D02*
D03*
X25000Y122500D02*
D03*
X20000Y123867D02*
D03*
X15000Y124500D02*
D03*
X10000D02*
D03*
X5000Y125000D02*
D03*
X62D02*
D03*
X-5000D02*
D03*
X-15000Y124500D02*
D03*
X-10000Y125000D02*
D03*
X-20000Y123500D02*
D03*
X-25000Y122500D02*
D03*
X-30022Y121500D02*
D03*
X-35000Y120500D02*
D03*
X-40000Y119000D02*
D03*
X-45000Y117000D02*
D03*
X-50000Y115000D02*
D03*
X-54978Y112500D02*
D03*
X-60000Y110000D02*
D03*
X-65000Y107500D02*
D03*
X-70000Y103500D02*
D03*
X-74000Y100000D02*
D03*
X-77368Y97500D02*
D03*
X-82500Y94000D02*
D03*
X-86000Y90000D02*
D03*
X-89500Y86649D02*
D03*
X-94500Y82000D02*
D03*
X-98846Y77000D02*
D03*
X-102500Y71972D02*
D03*
X-105000Y67500D02*
D03*
X-107579Y62500D02*
D03*
X-110500Y57500D02*
D03*
X-113000Y52500D02*
D03*
X-115000Y47500D02*
D03*
X-117381Y42500D02*
D03*
X-119000Y37500D02*
D03*
X-120500Y32702D02*
D03*
X-122000Y27411D02*
D03*
X-123000Y22500D02*
D03*
X-124000Y17000D02*
D03*
X-124500Y12500D02*
D03*
Y7500D02*
D03*
Y2500D02*
D03*
Y-2500D02*
D03*
Y-7434D02*
D03*
Y-12355D02*
D03*
X-124000Y-17244D02*
D03*
X-123500Y-22500D02*
D03*
X-122000Y-27500D02*
D03*
X-120500Y-32500D02*
D03*
X-119000Y-37500D02*
D03*
X-117500Y-41963D02*
D03*
X-115000Y-47596D02*
D03*
X-113000Y-52500D02*
D03*
X-110500Y-57500D02*
D03*
X-108000Y-62205D02*
D03*
X-104500Y-67526D02*
D03*
X-101000Y-72761D02*
D03*
X-97500Y-77610D02*
D03*
X-93794Y-82604D02*
D03*
X-89840Y-87000D02*
D03*
X-85000Y-91000D02*
D03*
X-81000Y-94500D02*
D03*
X-77150Y-97500D02*
D03*
D67*
X8500Y-71000D02*
D03*
X-74500Y-87000D02*
D03*
X-70000Y-75000D02*
D03*
X-66500Y-110500D02*
D03*
X-55500Y-155000D02*
D03*
X-48500D02*
D03*
Y-146500D02*
D03*
X-55500D02*
D03*
X39500Y-75000D02*
D03*
X10827Y-108500D02*
D03*
X-10500Y-83000D02*
D03*
X-1000Y-82500D02*
D03*
D68*
X-39000Y-57350D02*
D03*
Y-63650D02*
D03*
X30000Y-86350D02*
D03*
Y-92650D02*
D03*
D69*
X-39000Y-94472D02*
D03*
Y-78528D02*
D03*
D70*
X-21850Y-89764D02*
D03*
Y-87795D02*
D03*
Y-85827D02*
D03*
Y-83858D02*
D03*
Y-81890D02*
D03*
Y-79921D02*
D03*
Y-77953D02*
D03*
Y-75984D02*
D03*
Y-74016D02*
D03*
Y-72047D02*
D03*
Y-70079D02*
D03*
Y-68110D02*
D03*
Y-66142D02*
D03*
Y-64173D02*
D03*
Y-62205D02*
D03*
Y-60236D02*
D03*
X21850D02*
D03*
Y-62205D02*
D03*
Y-64173D02*
D03*
Y-66142D02*
D03*
Y-68110D02*
D03*
Y-70079D02*
D03*
Y-72047D02*
D03*
Y-74016D02*
D03*
Y-75984D02*
D03*
Y-77953D02*
D03*
Y-79921D02*
D03*
Y-81890D02*
D03*
Y-83858D02*
D03*
Y-85827D02*
D03*
Y-87795D02*
D03*
Y-89764D02*
D03*
D71*
X-14764Y-53150D02*
D03*
X-12795D02*
D03*
X-10827D02*
D03*
X-8858D02*
D03*
X-6890D02*
D03*
X-4921D02*
D03*
X-2953D02*
D03*
X-984D02*
D03*
X984D02*
D03*
X2953D02*
D03*
X4921D02*
D03*
X6890D02*
D03*
X8858D02*
D03*
X10827D02*
D03*
X12795D02*
D03*
X14764D02*
D03*
Y-96850D02*
D03*
X12795D02*
D03*
X10827D02*
D03*
X8858D02*
D03*
X6890D02*
D03*
X4921D02*
D03*
X2953D02*
D03*
X984D02*
D03*
X-984D02*
D03*
X-2953D02*
D03*
X-4921D02*
D03*
X-6890D02*
D03*
X-8858D02*
D03*
X-10827D02*
D03*
X-12795D02*
D03*
X-14764D02*
D03*
D72*
X-50421Y-152000D02*
D03*
M02*
