G04*
G04 #@! TF.GenerationSoftware,Altium Limited,Altium Designer,18.1.7 (191)*
G04*
G04 Layer_Color=16711935*
%FSLAX25Y25*%
%MOIN*%
G70*
G01*
G75*
%ADD38R,0.04737X0.04737*%
%ADD42R,0.05800X0.20800*%
%ADD43R,0.16391X0.16391*%
%ADD61C,0.01181*%
%ADD73R,0.04737X0.04737*%
%ADD74R,0.08871X0.09068*%
%ADD75O,0.07887X0.01981*%
%ADD76O,0.01981X0.07887*%
D38*
X-50928Y-78500D02*
D03*
X-57227D02*
D03*
X-50850Y-94500D02*
D03*
X-57150D02*
D03*
X-12350Y-105000D02*
D03*
X-18650D02*
D03*
X8850Y-43084D02*
D03*
X15150D02*
D03*
X-17150Y-42865D02*
D03*
X-10850D02*
D03*
D42*
X-43248Y-151575D02*
D03*
X43248D02*
D03*
D43*
X0D02*
D03*
D61*
X6176Y-157000D02*
D03*
X588D02*
D03*
X-5000D02*
D03*
Y-151500D02*
D03*
X588D02*
D03*
X6176D02*
D03*
X6176Y-146000D02*
D03*
X434D02*
D03*
X-5308D02*
D03*
X-74000Y-100813D02*
D03*
X-74687Y-105500D02*
D03*
X-74500Y-110500D02*
D03*
X-74687Y-115500D02*
D03*
X-74500Y-121000D02*
D03*
X-74687Y-127000D02*
D03*
X-74000Y-132000D02*
D03*
X-72071Y-138000D02*
D03*
X-69500Y-143500D02*
D03*
X-67458Y-149000D02*
D03*
X-64370Y-153500D02*
D03*
X-61000Y-158543D02*
D03*
X-56046Y-164500D02*
D03*
X-52000Y-168000D02*
D03*
X-49000Y-171000D02*
D03*
X-46000Y-174000D02*
D03*
X-41000Y-176952D02*
D03*
X-36500Y-179656D02*
D03*
X-31500Y-181500D02*
D03*
X-26772Y-181000D02*
D03*
X-22000Y-179126D02*
D03*
X-17500Y-177000D02*
D03*
X-12500Y-175500D02*
D03*
X-7500Y-174000D02*
D03*
X-1000Y-173500D02*
D03*
X4535Y-174000D02*
D03*
X9409Y-175000D02*
D03*
X14500Y-176403D02*
D03*
X19000Y-177500D02*
D03*
X23068Y-180000D02*
D03*
X28000Y-182000D02*
D03*
X33000D02*
D03*
X38000Y-179500D02*
D03*
X43248Y-176000D02*
D03*
X48000Y-173000D02*
D03*
X53000Y-169000D02*
D03*
X57000Y-164500D02*
D03*
X60500Y-160000D02*
D03*
X64500Y-155000D02*
D03*
X67000Y-149867D02*
D03*
X69753Y-145000D02*
D03*
X71424Y-140000D02*
D03*
X72932Y-135000D02*
D03*
X74598Y-130000D02*
D03*
X75000Y-125251D02*
D03*
X76000Y-119726D02*
D03*
Y-115000D02*
D03*
X76096Y-110082D02*
D03*
X75500Y-105000D02*
D03*
X75000Y-100000D02*
D03*
X79500Y-97286D02*
D03*
X84500Y-92500D02*
D03*
X89840Y-87000D02*
D03*
X94736Y-82000D02*
D03*
X98870Y-77500D02*
D03*
X102500Y-72211D02*
D03*
X105500Y-67526D02*
D03*
X108500Y-62500D02*
D03*
X111000Y-57500D02*
D03*
X114000Y-52500D02*
D03*
X116000Y-47596D02*
D03*
X118000Y-42500D02*
D03*
X119923Y-37500D02*
D03*
X121000Y-32500D02*
D03*
X122087Y-27500D02*
D03*
X123000Y-22500D02*
D03*
X124000Y-17412D02*
D03*
X125000Y-12500D02*
D03*
Y-7356D02*
D03*
Y-2500D02*
D03*
Y2000D02*
D03*
X124500Y7500D02*
D03*
Y12500D02*
D03*
X124000Y17467D02*
D03*
X123000Y22500D02*
D03*
X122000Y27500D02*
D03*
X121000Y32500D02*
D03*
X119500Y37500D02*
D03*
X117500Y42500D02*
D03*
X115500Y47500D02*
D03*
X113500Y52500D02*
D03*
X111199Y57500D02*
D03*
X108000Y63000D02*
D03*
X104500Y69000D02*
D03*
X100000Y75000D02*
D03*
X95000Y80936D02*
D03*
X90000Y87000D02*
D03*
X85000Y92000D02*
D03*
X79936Y96000D02*
D03*
X75000Y100000D02*
D03*
X70000Y103619D02*
D03*
X65000Y107500D02*
D03*
X60000Y110000D02*
D03*
X55000Y112500D02*
D03*
X50000Y114500D02*
D03*
X45031Y116500D02*
D03*
X40000Y118500D02*
D03*
X35000Y119923D02*
D03*
X30000Y121500D02*
D03*
X25000Y122500D02*
D03*
X20000Y123867D02*
D03*
X15000Y124500D02*
D03*
X10000D02*
D03*
X5000Y125000D02*
D03*
X62D02*
D03*
X-5000D02*
D03*
X-15000Y124500D02*
D03*
X-10000Y125000D02*
D03*
X-20000Y123500D02*
D03*
X-25000Y122500D02*
D03*
X-30022Y121500D02*
D03*
X-35000Y120500D02*
D03*
X-40000Y119000D02*
D03*
X-45000Y117000D02*
D03*
X-50000Y115000D02*
D03*
X-54978Y112500D02*
D03*
X-60000Y110000D02*
D03*
X-65000Y107500D02*
D03*
X-70000Y103500D02*
D03*
X-74000Y100000D02*
D03*
X-77368Y97500D02*
D03*
X-82500Y94000D02*
D03*
X-86000Y90000D02*
D03*
X-89500Y86649D02*
D03*
X-94500Y82000D02*
D03*
X-98846Y77000D02*
D03*
X-102500Y71972D02*
D03*
X-105000Y67500D02*
D03*
X-107579Y62500D02*
D03*
X-110500Y57500D02*
D03*
X-113000Y52500D02*
D03*
X-115000Y47500D02*
D03*
X-117381Y42500D02*
D03*
X-119000Y37500D02*
D03*
X-120500Y32702D02*
D03*
X-122000Y27411D02*
D03*
X-123000Y22500D02*
D03*
X-124000Y17000D02*
D03*
X-124500Y12500D02*
D03*
Y7500D02*
D03*
Y2500D02*
D03*
Y-2500D02*
D03*
Y-7434D02*
D03*
Y-12355D02*
D03*
X-124000Y-17244D02*
D03*
X-123500Y-22500D02*
D03*
X-122000Y-27500D02*
D03*
X-120500Y-32500D02*
D03*
X-119000Y-37500D02*
D03*
X-117500Y-41963D02*
D03*
X-115000Y-47596D02*
D03*
X-113000Y-52500D02*
D03*
X-110500Y-57500D02*
D03*
X-108000Y-62205D02*
D03*
X-104500Y-67526D02*
D03*
X-101000Y-72761D02*
D03*
X-97500Y-77610D02*
D03*
X-93794Y-82604D02*
D03*
X-89840Y-87000D02*
D03*
X-85000Y-91000D02*
D03*
X-81000Y-94500D02*
D03*
X-77150Y-97500D02*
D03*
X8500Y-71000D02*
D03*
X-74500Y-87000D02*
D03*
X-70000Y-75000D02*
D03*
X-66500Y-110500D02*
D03*
X-55500Y-155000D02*
D03*
X-48500D02*
D03*
Y-146500D02*
D03*
X-55500D02*
D03*
X39500Y-75000D02*
D03*
X10827Y-108500D02*
D03*
X-10500Y-83000D02*
D03*
X-1000Y-82500D02*
D03*
D73*
X-39000Y-57350D02*
D03*
Y-63650D02*
D03*
X30000Y-86350D02*
D03*
Y-92650D02*
D03*
D74*
X-39000Y-94472D02*
D03*
Y-78528D02*
D03*
D75*
X-21850Y-89764D02*
D03*
Y-87795D02*
D03*
Y-85827D02*
D03*
Y-83858D02*
D03*
Y-81890D02*
D03*
Y-79921D02*
D03*
Y-77953D02*
D03*
Y-75984D02*
D03*
Y-74016D02*
D03*
Y-72047D02*
D03*
Y-70079D02*
D03*
Y-68110D02*
D03*
Y-66142D02*
D03*
Y-64173D02*
D03*
Y-62205D02*
D03*
Y-60236D02*
D03*
X21850D02*
D03*
Y-62205D02*
D03*
Y-64173D02*
D03*
Y-66142D02*
D03*
Y-68110D02*
D03*
Y-70079D02*
D03*
Y-72047D02*
D03*
Y-74016D02*
D03*
Y-75984D02*
D03*
Y-77953D02*
D03*
Y-79921D02*
D03*
Y-81890D02*
D03*
Y-83858D02*
D03*
Y-85827D02*
D03*
Y-87795D02*
D03*
Y-89764D02*
D03*
D76*
X-14764Y-53150D02*
D03*
X-12795D02*
D03*
X-10827D02*
D03*
X-8858D02*
D03*
X-6890D02*
D03*
X-4921D02*
D03*
X-2953D02*
D03*
X-984D02*
D03*
X984D02*
D03*
X2953D02*
D03*
X4921D02*
D03*
X6890D02*
D03*
X8858D02*
D03*
X10827D02*
D03*
X12795D02*
D03*
X14764D02*
D03*
Y-96850D02*
D03*
X12795D02*
D03*
X10827D02*
D03*
X8858D02*
D03*
X6890D02*
D03*
X4921D02*
D03*
X2953D02*
D03*
X984D02*
D03*
X-984D02*
D03*
X-2953D02*
D03*
X-4921D02*
D03*
X-6890D02*
D03*
X-8858D02*
D03*
X-10827D02*
D03*
X-12795D02*
D03*
X-14764D02*
D03*
M02*
