G04*
G04 #@! TF.GenerationSoftware,Altium Limited,Altium Designer,18.1.7 (191)*
G04*
G04 Layer_Color=65535*
%FSLAX25Y25*%
%MOIN*%
G70*
G01*
G75*
%ADD10C,0.00394*%
%ADD11C,0.01000*%
%ADD12C,0.00709*%
%ADD13C,0.00700*%
%ADD14C,0.00787*%
D10*
X-81170Y-72846D02*
G03*
X-81170Y-72846I-394J0D01*
G01*
X73151Y-81659D02*
G03*
X73151Y-81659I-394J0D01*
G01*
X96030Y-53018D02*
G03*
X96030Y-53018I-394J0D01*
G01*
X108177Y-18448D02*
G03*
X108177Y-18448I-394J0D01*
G01*
X108221Y18194D02*
G03*
X108221Y18194I-394J0D01*
G01*
X96196Y52793D02*
G03*
X96196Y52793I-394J0D01*
G01*
X73293Y81233D02*
G03*
X73293Y81233I-308J245D01*
G01*
X42335Y100992D02*
G03*
X42335Y100992I-394J0D01*
G01*
X6625Y109189D02*
G03*
X6625Y109189I-394J0D01*
G01*
X-29789Y105143D02*
G03*
X-29789Y105143I-394J0D01*
G01*
X-62825Y89233D02*
G03*
X-62825Y89233I-394J0D01*
G01*
X-88939Y63673D02*
G03*
X-88939Y63673I-210J-333D01*
G01*
X-104675Y30312D02*
G03*
X-104675Y30312I-394J0D01*
G01*
X-108798Y-6078D02*
G03*
X-108798Y-6078I-394J0D01*
G01*
X-101055Y-41415D02*
G03*
X-101055Y-41415I0J-394D01*
G01*
X-15000Y-49437D02*
X14000D01*
X-15000Y-56437D02*
X14000D01*
Y-49437D01*
X-15000Y-56437D02*
Y-49437D01*
X-80150Y-85484D02*
X-74582Y-79917D01*
X-80150Y-74349D02*
X-74582Y-79917D01*
X-85717D02*
X-80150Y-85484D01*
X-85717Y-79917D02*
X-80150Y-74349D01*
X79829Y-74677D02*
X85396Y-80244D01*
X74261D02*
X79829Y-74677D01*
Y-85812D02*
X85396Y-80244D01*
X74261D02*
X79829Y-85812D01*
X100034Y-44107D02*
X107117Y-47546D01*
X96594Y-51190D02*
X100034Y-44107D01*
X103678Y-54629D02*
X107117Y-47546D01*
X96594Y-51190D02*
X103678Y-54629D01*
X108988Y-8584D02*
X116809Y-9489D01*
X108082Y-16406D02*
X108988Y-8584D01*
X115904Y-17311D02*
X116809Y-9489D01*
X108082Y-16406D02*
X115904Y-17311D01*
X105704Y27902D02*
X113385Y29633D01*
X105704Y27902D02*
X107435Y20221D01*
X113385Y29633D02*
X115117Y21952D01*
X107435Y20221D02*
X115117Y21952D01*
X90590Y61254D02*
X97268Y65426D01*
X90590Y61254D02*
X94763Y54576D01*
X97268Y65426D02*
X101440Y58749D01*
X94763Y54576D02*
X101440Y58749D01*
X65236Y87699D02*
X70127Y93870D01*
X65236Y87699D02*
X71407Y82808D01*
X70127Y93870D02*
X76298Y88979D01*
X71407Y82808D02*
X76298Y88979D01*
X32590Y104352D02*
X35205Y111779D01*
X32590Y104352D02*
X40017Y101736D01*
X35205Y111779D02*
X42632Y109163D01*
X40017Y101736D02*
X42632Y109163D01*
X-3706Y109252D02*
Y117126D01*
Y109252D02*
X4169D01*
X-3706Y117126D02*
X4169D01*
Y109252D02*
Y117126D01*
X-42199Y109308D02*
X-39570Y101885D01*
X-32148Y104514D01*
X-42199Y109308D02*
X-34776Y111936D01*
X-32148Y104514D01*
X-75937Y89258D02*
X-71035Y83096D01*
X-64873Y87998D01*
X-75937Y89258D02*
X-69774Y94160D01*
X-64873Y87998D01*
X-101160Y59160D02*
X-94497Y54964D01*
X-90301Y61627D01*
X-101160Y59160D02*
X-96964Y65823D01*
X-90301Y61627D01*
X-115024Y22398D02*
X-107348Y20640D01*
X-105590Y28315D01*
X-115024Y22398D02*
X-113266Y30073D01*
X-105590Y28315D01*
X-115972Y-16838D02*
X-108147Y-15961D01*
X-109024Y-8136D02*
X-108147Y-15961D01*
X-116849Y-9013D02*
X-115972Y-16838D01*
X-116849Y-9013D02*
X-109024Y-8136D01*
X-103897Y-54205D02*
X-96802Y-50790D01*
X-100217Y-43695D02*
X-96802Y-50790D01*
X-107312Y-47110D02*
X-103897Y-54205D01*
X-107312Y-47110D02*
X-100217Y-43695D01*
X21486Y-91704D02*
X21027Y-91245D01*
X20109D01*
X19650Y-91704D01*
Y-93541D01*
X20109Y-94000D01*
X21027D01*
X21486Y-93541D01*
X22405Y-94000D02*
X23323D01*
X22864D01*
Y-91245D01*
X22405Y-91704D01*
X19516Y-86000D02*
Y-83245D01*
X20893D01*
X21352Y-83704D01*
Y-84623D01*
X20893Y-85082D01*
X19516D01*
X20434D02*
X21352Y-86000D01*
X22271D02*
X23189D01*
X22730D01*
Y-83245D01*
X22271Y-83704D01*
X-23700Y-68380D02*
Y-65625D01*
X-22322D01*
X-21863Y-66084D01*
Y-67003D01*
X-22322Y-67462D01*
X-23700D01*
X-20945Y-68380D02*
X-20027D01*
X-20486D01*
Y-65625D01*
X-20945Y-66084D01*
X-44500Y-115745D02*
Y-118500D01*
X-43123D01*
X-42663Y-118041D01*
Y-117582D01*
X-43123Y-117122D01*
X-44500D01*
X-43123D01*
X-42663Y-116663D01*
Y-116204D01*
X-43123Y-115745D01*
X-44500D01*
X-41745D02*
X-39908D01*
X-40827D01*
Y-118500D01*
X-37153D02*
X-38990D01*
X-37153Y-116663D01*
Y-116204D01*
X-37613Y-115745D01*
X-38531D01*
X-38990Y-116204D01*
X-27163Y-51078D02*
X-27623Y-50619D01*
X-28541D01*
X-29000Y-51078D01*
Y-51537D01*
X-28541Y-51996D01*
X-27623D01*
X-27163Y-52455D01*
Y-52915D01*
X-27623Y-53374D01*
X-28541D01*
X-29000Y-52915D01*
X-26245Y-53374D02*
X-25327D01*
X-25786D01*
Y-50619D01*
X-26245Y-51078D01*
X-92500Y-74245D02*
Y-76541D01*
X-92041Y-77000D01*
X-91123D01*
X-90663Y-76541D01*
Y-74245D01*
X-87908Y-77000D02*
X-89745D01*
X-87908Y-75163D01*
Y-74704D01*
X-88367Y-74245D01*
X-89286D01*
X-89745Y-74704D01*
X81000Y-86245D02*
Y-88541D01*
X81459Y-89000D01*
X82377D01*
X82837Y-88541D01*
Y-86245D01*
X83755Y-89000D02*
X84673D01*
X84214D01*
Y-86245D01*
X83755Y-86704D01*
X87888Y-86245D02*
X86969Y-86704D01*
X86051Y-87622D01*
Y-88541D01*
X86510Y-89000D01*
X87428D01*
X87888Y-88541D01*
Y-88082D01*
X87428Y-87622D01*
X86051D01*
X104500Y-53745D02*
Y-56041D01*
X104959Y-56500D01*
X105877D01*
X106337Y-56041D01*
Y-53745D01*
X107255Y-56500D02*
X108173D01*
X107714D01*
Y-53745D01*
X107255Y-54204D01*
X111388Y-53745D02*
X109551D01*
Y-55123D01*
X110469Y-54663D01*
X110928D01*
X111388Y-55123D01*
Y-56041D01*
X110928Y-56500D01*
X110010D01*
X109551Y-56041D01*
X117000Y-15245D02*
Y-17541D01*
X117459Y-18000D01*
X118377D01*
X118837Y-17541D01*
Y-15245D01*
X119755Y-18000D02*
X120673D01*
X120214D01*
Y-15245D01*
X119755Y-15704D01*
X123428Y-18000D02*
Y-15245D01*
X122051Y-16623D01*
X123888D01*
X116500Y23735D02*
Y21439D01*
X116959Y20980D01*
X117877D01*
X118337Y21439D01*
Y23735D01*
X119255Y20980D02*
X120173D01*
X119714D01*
Y23735D01*
X119255Y23276D01*
X121551D02*
X122010Y23735D01*
X122928D01*
X123388Y23276D01*
Y22817D01*
X122928Y22357D01*
X122469D01*
X122928D01*
X123388Y21898D01*
Y21439D01*
X122928Y20980D01*
X122010D01*
X121551Y21439D01*
X104000Y60755D02*
Y58459D01*
X104459Y58000D01*
X105377D01*
X105837Y58459D01*
Y60755D01*
X106755Y58000D02*
X107673D01*
X107214D01*
Y60755D01*
X106755Y60296D01*
X110888Y58000D02*
X109051D01*
X110888Y59837D01*
Y60296D01*
X110428Y60755D01*
X109510D01*
X109051Y60296D01*
X78659Y91255D02*
X78671Y88959D01*
X79132Y88502D01*
X80051Y88507D01*
X80507Y88969D01*
X80495Y91265D01*
X81428Y88514D02*
X82346Y88519D01*
X81887Y88517D01*
X81873Y91272D01*
X81416Y90810D01*
X83724Y88526D02*
X84642Y88531D01*
X84183Y88529D01*
X84169Y91284D01*
X83712Y90822D01*
X45031Y111255D02*
Y108959D01*
X45491Y108500D01*
X46409D01*
X46868Y108959D01*
Y111255D01*
X47787Y108500D02*
X48705D01*
X48246D01*
Y111255D01*
X47787Y110796D01*
X50082D02*
X50542Y111255D01*
X51460D01*
X51919Y110796D01*
Y108959D01*
X51460Y108500D01*
X50542D01*
X50082Y108959D01*
Y110796D01*
X7000Y119755D02*
Y117459D01*
X7459Y117000D01*
X8377D01*
X8837Y117459D01*
Y119755D01*
X9755Y117459D02*
X10214Y117000D01*
X11133D01*
X11592Y117459D01*
Y119296D01*
X11133Y119755D01*
X10214D01*
X9755Y119296D01*
Y118837D01*
X10214Y118377D01*
X11592D01*
X-32014Y116255D02*
X-32002Y113959D01*
X-31541Y113502D01*
X-30623Y113507D01*
X-30166Y113969D01*
X-30178Y116265D01*
X-29257Y115810D02*
X-28800Y116272D01*
X-27882Y116277D01*
X-27420Y115820D01*
X-27418Y115361D01*
X-27875Y114899D01*
X-27413Y114442D01*
X-27411Y113983D01*
X-27867Y113522D01*
X-28786Y113517D01*
X-29247Y113974D01*
X-29250Y114433D01*
X-28793Y114894D01*
X-29255Y115351D01*
X-29257Y115810D01*
X-28793Y114894D02*
X-27875Y114899D01*
X-67000Y99273D02*
Y96978D01*
X-66541Y96518D01*
X-65623D01*
X-65163Y96978D01*
Y99273D01*
X-64245D02*
X-62408D01*
Y98814D01*
X-64245Y96978D01*
Y96518D01*
X-95119Y72255D02*
Y69959D01*
X-94659Y69500D01*
X-93741D01*
X-93282Y69959D01*
Y72255D01*
X-90527D02*
X-91445Y71796D01*
X-92364Y70877D01*
Y69959D01*
X-91904Y69500D01*
X-90986D01*
X-90527Y69959D01*
Y70418D01*
X-90986Y70877D01*
X-92364D01*
X-113000Y36255D02*
Y33959D01*
X-112541Y33500D01*
X-111623D01*
X-111163Y33959D01*
Y36255D01*
X-108408D02*
X-110245D01*
Y34877D01*
X-109327Y35337D01*
X-108868D01*
X-108408Y34877D01*
Y33959D01*
X-108868Y33500D01*
X-109786D01*
X-110245Y33959D01*
X-117500Y-2745D02*
Y-5041D01*
X-117041Y-5500D01*
X-116122D01*
X-115663Y-5041D01*
Y-2745D01*
X-113367Y-5500D02*
Y-2745D01*
X-114745Y-4123D01*
X-112908D01*
X-111000Y-39745D02*
Y-42041D01*
X-110541Y-42500D01*
X-109623D01*
X-109163Y-42041D01*
Y-39745D01*
X-108245Y-40204D02*
X-107786Y-39745D01*
X-106868D01*
X-106408Y-40204D01*
Y-40663D01*
X-106868Y-41122D01*
X-107327D01*
X-106868D01*
X-106408Y-41582D01*
Y-42041D01*
X-106868Y-42500D01*
X-107786D01*
X-108245Y-42041D01*
X50400Y-108245D02*
Y-111000D01*
X51777D01*
X52237Y-110541D01*
Y-110082D01*
X51777Y-109623D01*
X50400D01*
X51777D01*
X52237Y-109163D01*
Y-108704D01*
X51777Y-108245D01*
X50400D01*
X53155Y-111000D02*
X54073D01*
X53614D01*
Y-108245D01*
X53155Y-108704D01*
X-68000Y-107245D02*
Y-110000D01*
X-66623D01*
X-66163Y-109541D01*
Y-109082D01*
X-66623Y-108623D01*
X-68000D01*
X-66623D01*
X-66163Y-108163D01*
Y-107704D01*
X-66623Y-107245D01*
X-68000D01*
X-63408Y-110000D02*
X-65245D01*
X-63408Y-108163D01*
Y-107704D01*
X-63867Y-107245D01*
X-64786D01*
X-65245Y-107704D01*
D11*
X64106Y-128665D02*
G03*
X64106Y-128665I-3606J0D01*
G01*
X-55894Y-127000D02*
G03*
X-55894Y-127000I-3606J0D01*
G01*
X50750Y-121415D02*
X53500Y-118665D01*
X67500Y-119165D02*
X68000D01*
X51000Y-135665D02*
X53185Y-137850D01*
X67500Y-138350D02*
X70185Y-135665D01*
X67185Y-118665D02*
X70185Y-121665D01*
X50500Y-138350D02*
X70185D01*
Y-118665D01*
X50500Y-138350D02*
Y-118665D01*
X70185D01*
X-69250Y-119750D02*
X-66500Y-117000D01*
X-52500Y-117500D02*
X-52000D01*
X-69000Y-134000D02*
X-66815Y-136185D01*
X-52500Y-136685D02*
X-49815Y-134000D01*
X-52815Y-117000D02*
X-49815Y-120000D01*
X-69500Y-136685D02*
X-49815D01*
Y-117000D01*
X-69500Y-136685D02*
Y-117000D01*
X-49815D01*
X-36000Y-100502D02*
Y-106500D01*
X-32001D01*
X-26003Y-100502D02*
X-30002D01*
Y-106500D01*
X-26003D01*
X-30002Y-103501D02*
X-28003D01*
X-24004Y-100502D02*
Y-106500D01*
X-21005D01*
X-20005Y-105500D01*
Y-101502D01*
X-21005Y-100502D01*
X-24004D01*
X-12008Y-106500D02*
Y-100502D01*
X-9009D01*
X-8009Y-101502D01*
Y-103501D01*
X-9009Y-104501D01*
X-12008D01*
X-10008D02*
X-8009Y-106500D01*
X-6010D02*
X-4010D01*
X-5010D01*
Y-102501D01*
X-6010D01*
X-1011Y-106500D02*
Y-102501D01*
X1988D01*
X2987Y-103501D01*
Y-106500D01*
X6986Y-108499D02*
X7986D01*
X8986Y-107500D01*
Y-102501D01*
X5986D01*
X4987Y-103501D01*
Y-105500D01*
X5986Y-106500D01*
X8986D01*
X16983Y-100502D02*
Y-104501D01*
X18982Y-106500D01*
X20982Y-104501D01*
Y-100502D01*
X22981Y-106500D02*
X24980D01*
X23981D01*
Y-100502D01*
X22981Y-101502D01*
X27979Y-106500D02*
Y-105500D01*
X28979D01*
Y-106500D01*
X27979D01*
X32978Y-101502D02*
X33977Y-100502D01*
X35977D01*
X36976Y-101502D01*
Y-105500D01*
X35977Y-106500D01*
X33977D01*
X32978Y-105500D01*
Y-101502D01*
D12*
X11835Y-94114D02*
X12465D01*
X11835Y-90886D02*
X12465D01*
D13*
X6151Y-83273D02*
X8750D01*
X6151Y-88720D02*
Y-83273D01*
Y-88720D02*
X8750D01*
X15550D02*
X18148D01*
Y-83273D01*
X15550D02*
X18148D01*
D14*
X-41795Y-169285D02*
Y-162402D01*
Y-169285D02*
X-39750D01*
X-35135Y-181705D01*
X-34215Y-183280D01*
X-33240Y-184300D01*
X-31940Y-185165D01*
X-30325Y-185750D01*
X-28780Y-185900D01*
X-27205Y-185665D01*
X-25835Y-185115D01*
X-23614Y-183661D01*
X-21440Y-182270D01*
X-18760Y-180810D01*
X-16005Y-179560D01*
X-13185Y-178515D01*
X-10315Y-177685D01*
X-8135Y-177195D01*
X-5200Y-176725D01*
X-2245Y-176465D01*
X-20Y-176405D01*
X2205Y-176465D01*
X5160Y-176725D01*
X8095Y-177190D01*
X10995Y-177870D01*
X13855Y-178755D01*
X16660Y-179850D01*
X18720Y-180805D01*
X20735Y-181880D01*
X22705Y-183075D01*
X24915Y-184575D01*
X26550Y-185467D01*
X28375Y-185880D01*
X30450Y-185705D01*
X32370Y-184905D01*
X33970Y-183550D01*
X35165Y-181535D01*
X39750Y-169285D01*
X41750D01*
Y-162402D01*
X-41795Y-140748D02*
Y-133700D01*
X-39750D01*
X-41210Y-132325D02*
X-39750Y-133700D01*
X-41210Y-132325D02*
X-30460Y-120995D01*
X-29000Y-122365D01*
X29000D01*
X30415Y-120995D01*
X41165Y-132325D01*
X39750Y-133700D02*
X41165Y-132325D01*
X39750Y-133700D02*
X41750D01*
Y-140748D02*
Y-133700D01*
M02*
