M48
;Layer_Color=9474304
;FILE_FORMAT=2:5
INCH,LZ
;TYPE=PLATED
T1F00S00C0.01181
%
T01
X-0022Y-0179126
X-00175Y-0177
X-00125Y-01755
X-00075Y-0174
X-0001Y-01735
X0004535Y-0174
X0009409Y-0175
X00145Y-0176403
X0019Y-01775
X0023068Y-018
X0028Y-0182
X0033
X0038Y-01795
X0043248Y-0176
X0048Y-0173
X0053Y-0169
X0057Y-01645
X00605Y-016
X00645Y-0155
X0067Y-0149867
X0069753Y-0145
X0071424Y-014
X0072932Y-0135
X0074598Y-013
X0075Y-0125251
X0076Y-0119726
Y-0115
X0076096Y-0110082
X00755Y-0105
X0075Y-01
X00795Y-0097286
X00845Y-00925
X0010827Y-01085
X0006176Y-0146
X0006176Y-01515
Y-0157
X0000588
Y-01515
X-0005
Y-0157
X-0005308Y-0146
X0000434
X-00485Y-01465
X-00555
Y-0155
X-00485
X-0061Y-0158543
X-006437Y-01535
X-0067458Y-0149
X-00695Y-01435
X-0072071Y-0138
X-0074Y-0132
X-0074687Y-0127
X-00745Y-0121
X-0074687Y-01155
X-00745Y-01105
X-0074687Y-01055
X-0074Y-0100813
X-007715Y-00975
X-0081Y-00945
X-0085Y-0091
X-00665Y-01105
X-0056046Y-01645
X-0052Y-0168
X-0049Y-0171
X-0046Y-0174
X-0041Y-0176952
X-00365Y-0179656
X-00315Y-01815
X-0026772Y-0181
X-00745Y-0087
X-008984
X-0093794Y-0082604
X-00975Y-007761
X-0101Y-0072761
X-01045Y-0067526
X-0108Y-0062205
X-01105Y-00575
X-0113Y-00525
X-0115Y-0047596
X-01175Y-0041963
X-0119Y-00375
X-01205Y-00325
X-0122Y-00275
X-01235Y-00225
X-0124Y-0017244
X-01245Y-0012355
Y-0007434
Y-00025
Y00025
Y00075
Y00125
X-0124Y0017
X-0123Y00225
X-0122Y0027411
X-01205Y0032702
X-0119Y00375
X-0117381Y00425
X-0115Y00475
X-0113Y00525
X-01105Y00575
X-0107579Y00625
X-007Y-0075
X-00105Y-0083
X-0001Y-00825
X00085Y-0071
X00395Y-0075
X009887Y-00775
X0094736Y-0082
X008984Y-0087
X01025Y-0072211
X01055Y-0067526
X01085Y-00625
X0111Y-00575
X0114Y-00525
X0116Y-0047596
X0118Y-00425
X0119923Y-00375
X0121Y-00325
X0122087Y-00275
X0123Y-00225
X0124Y-0017412
X0125Y-00125
Y-0007356
Y-00025
Y0002
X01245Y00075
Y00125
X0124Y0017467
X0123Y00225
X0122Y00275
X0121Y00325
X01195Y00375
X01175Y00425
X01155Y00475
X01135Y00525
X0111199Y00575
X0108Y0063
X01045Y0069
X01Y0075
X0095Y0080936
X009Y0087
X0085Y0092
X0079936Y0096
X0075Y01
X007Y0103619
X0065Y01075
X006Y011
X0055Y01125
X005Y01145
X0045031Y01165
X004Y01185
X0035Y0119923
X003Y01215
X0025Y01225
X002Y0123867
X0015Y01245
X001
X0005Y0125
X0000062
X-0005
X-001
X-0015Y01245
X-002Y01235
X-0025Y01225
X-0030022Y01215
X-0035Y01205
X-004Y0119
X-0045Y0117
X-005Y0115
X-0054978Y01125
X-006Y011
X-0065Y01075
X-007Y01035
X-0074Y01
X-0077368Y00975
X-00825Y0094
X-0086Y009
X-00895Y0086649
X-00945Y0082
X-0098846Y0077
X-01025Y0071972
X-0105Y00675
M30
